<svg width="25" height="24" viewBox="0 0 25 24" fill="none" xmlns="http://www.w3.org/2000/svg">
<path opacity="0.1" d="M12.4 3.28125C7.58596 3.28125 3.68127 7.18594 3.68127 12C3.68127 16.8141 7.58596 20.7188 12.4 20.7188C17.2141 20.7188 21.1188 16.8141 21.1188 12C21.1188 7.18594 17.2141 3.28125 12.4 3.28125ZM16.9 12.5625C16.9 12.6656 16.8156 12.75 16.7125 12.75H13.15V16.3125C13.15 16.4156 13.0656 16.5 12.9625 16.5H11.8375C11.7344 16.5 11.65 16.4156 11.65 16.3125V12.75H8.08752C7.9844 12.75 7.90002 12.6656 7.90002 12.5625V11.4375C7.90002 11.3344 7.9844 11.25 8.08752 11.25H11.65V7.6875C11.65 7.58437 11.7344 7.5 11.8375 7.5H12.9625C13.0656 7.5 13.15 7.58437 13.15 7.6875V11.25H16.7125C16.8156 11.25 16.9 11.3344 16.9 11.4375V12.5625Z" fill="#1890FF"/>
<path d="M16.7125 11.25H13.15V7.6875C13.15 7.58437 13.0656 7.5 12.9625 7.5H11.8375C11.7344 7.5 11.65 7.58437 11.65 7.6875V11.25H8.08752C7.9844 11.25 7.90002 11.3344 7.90002 11.4375V12.5625C7.90002 12.6656 7.9844 12.75 8.08752 12.75H11.65V16.3125C11.65 16.4156 11.7344 16.5 11.8375 16.5H12.9625C13.0656 16.5 13.15 16.4156 13.15 16.3125V12.75H16.7125C16.8156 12.75 16.9 12.6656 16.9 12.5625V11.4375C16.9 11.3344 16.8156 11.25 16.7125 11.25Z" fill="#1890FF"/>
</svg>
