<svg width="25" height="24" viewBox="0 0 25 24" fill="none" xmlns="http://www.w3.org/2000/svg">
<path opacity="0.1" d="M22.0446 6.65313V6.66485L20.254 20.2727C20.2306 20.4602 20.0688 20.6008 19.8813 20.6008H5.46494C5.2751 20.6008 5.11572 20.4578 5.08994 20.2727L3.29932 6.66485V6.65079V6.68829L5.08994 20.2961C5.11572 20.4813 5.2751 20.6242 5.46494 20.6242H19.8813C20.0688 20.6242 20.2306 20.4836 20.254 20.2961L22.0446 6.68829C22.047 6.67657 22.047 6.66485 22.0446 6.65313Z" fill="#1890FF"/>
<path opacity="0.1" d="M18.8028 18.998L20.0661 9.40274L16.7895 11.4207L12.6716 5.92696L8.5536 11.4207L5.27704 9.40274L6.53798 18.998H18.8028ZM10.0325 14.5684C10.0325 13.1129 11.2161 11.9293 12.6716 11.9293C14.127 11.9293 15.3106 13.1129 15.3106 14.5684V14.5918C15.3106 16.0473 14.127 17.2309 12.6716 17.2309C11.2161 17.2309 10.0325 16.0473 10.0325 14.5918V14.5684Z" fill="#1890FF"/>
<path d="M12.6712 17.2078C14.122 17.2078 15.3032 16.0312 15.3103 14.5805V14.5687C15.3103 13.1133 14.1267 11.9297 12.6712 11.9297C11.2157 11.9297 10.0321 13.1133 10.0321 14.5687V14.5805C10.0391 16.0312 11.2204 17.2078 12.6712 17.2078ZM12.6712 13.4367C13.2946 13.4367 13.8009 13.943 13.8009 14.5687C13.8009 15.1922 13.2946 15.7008 12.6712 15.7008C12.0477 15.7008 11.5415 15.1945 11.5415 14.5687C11.5415 13.9453 12.0477 13.4367 12.6712 13.4367Z" fill="#1890FF"/>
<path d="M5.08941 20.2733C5.11519 20.4585 5.27456 20.6015 5.46441 20.6015H19.8808C20.0683 20.6015 20.23 20.4608 20.2535 20.2733L22.0441 6.66552V6.6538C22.0511 6.5038 21.8871 6.40068 21.7558 6.48036L17.1949 9.29052L12.8214 3.45693C12.8038 3.43345 12.781 3.41439 12.7548 3.40126C12.7285 3.38814 12.6996 3.3813 12.6703 3.3813C12.6409 3.3813 12.612 3.38814 12.5857 3.40126C12.5595 3.41439 12.5367 3.43345 12.5191 3.45693L8.148 9.29052L3.58472 6.48036C3.45581 6.40068 3.28941 6.50146 3.29878 6.65146V6.66552L5.08941 20.2733ZM8.55347 11.421L12.6714 5.92724L16.7894 11.421L20.066 9.40302L18.8027 18.9983H6.53784L5.27691 9.40302L8.55347 11.421Z" fill="#1890FF"/>
</svg>
