<svg width="8" height="22" viewBox="0 0 8 22" fill="none" xmlns="http://www.w3.org/2000/svg">
<path d="M4.60742 4.43359V6.51855H3.58203V4.43359H4.60742ZM4.48438 15.5967V17.4219H3.46582V15.5967H4.48438ZM5.85156 13.4365C5.85156 13.1631 5.79004 12.917 5.66699 12.6982C5.54395 12.4795 5.34115 12.279 5.05859 12.0967C4.77604 11.9144 4.39779 11.7458 3.92383 11.5908C3.34961 11.4131 2.85286 11.1966 2.43359 10.9414C2.01888 10.6862 1.69759 10.3695 1.46973 9.99121C1.24642 9.61296 1.13477 9.15495 1.13477 8.61719C1.13477 8.05664 1.25553 7.57357 1.49707 7.16797C1.73861 6.76237 2.0804 6.4502 2.52246 6.23145C2.96452 6.0127 3.48405 5.90332 4.08105 5.90332C4.5459 5.90332 4.96061 5.97396 5.3252 6.11523C5.68978 6.25195 5.9974 6.45703 6.24805 6.73047C6.50326 7.00391 6.69694 7.33887 6.8291 7.73535C6.96582 8.13184 7.03418 8.58984 7.03418 9.10938H5.77637C5.77637 8.80404 5.73991 8.52376 5.66699 8.26855C5.59408 8.01335 5.4847 7.79232 5.33887 7.60547C5.19303 7.41406 5.0153 7.26823 4.80566 7.16797C4.59603 7.06315 4.35449 7.01074 4.08105 7.01074C3.69824 7.01074 3.38151 7.07682 3.13086 7.20898C2.88477 7.34115 2.70247 7.52799 2.58398 7.76953C2.46549 8.00651 2.40625 8.28223 2.40625 8.59668C2.40625 8.88835 2.46549 9.14355 2.58398 9.3623C2.70247 9.58105 2.90299 9.7793 3.18555 9.95703C3.47266 10.1302 3.86686 10.3011 4.36816 10.4697C4.95605 10.6566 5.45508 10.8776 5.86523 11.1328C6.27539 11.3835 6.58757 11.6934 6.80176 12.0625C7.01595 12.4271 7.12305 12.8805 7.12305 13.4229C7.12305 14.0107 6.99089 14.5075 6.72656 14.9131C6.46224 15.3141 6.09082 15.6195 5.6123 15.8291C5.13379 16.0387 4.57324 16.1436 3.93066 16.1436C3.54329 16.1436 3.16048 16.0911 2.78223 15.9863C2.40397 15.8815 2.06217 15.7106 1.75684 15.4736C1.4515 15.2321 1.20768 14.9154 1.02539 14.5234C0.843099 14.127 0.751953 13.6416 0.751953 13.0674H2.02344C2.02344 13.4548 2.07812 13.776 2.1875 14.0312C2.30143 14.2819 2.45182 14.4824 2.63867 14.6328C2.82552 14.7786 3.0306 14.8835 3.25391 14.9473C3.48177 15.0065 3.70736 15.0361 3.93066 15.0361C4.34082 15.0361 4.68717 14.9723 4.96973 14.8447C5.25684 14.7126 5.47559 14.5257 5.62598 14.2842C5.77637 14.0426 5.85156 13.7601 5.85156 13.4365Z" fill="#1890FF"/>
</svg>
