<svg width="8" height="11" viewBox="0 0 8 11" fill="none" xmlns="http://www.w3.org/2000/svg">
<path d="M7.71094 11H0.649414V9.92676H7.71094V11ZM5.21582 6.74121H0.62207V5.66797H5.21582V6.74121ZM2.97363 3.89746L3.12402 8.25195C3.12858 8.68034 3.06706 9.08138 2.93945 9.45508C2.81185 9.82422 2.62044 10.1022 2.36523 10.2891L1.17578 9.92676C1.33529 9.88574 1.46061 9.77181 1.55176 9.58496C1.64746 9.39355 1.71354 9.1748 1.75 8.92871C1.79102 8.68262 1.81152 8.45931 1.81152 8.25879L1.66113 3.89746C1.66113 3.26855 1.79329 2.73307 2.05762 2.29102C2.32194 1.8444 2.68197 1.5026 3.1377 1.26562C3.59798 1.02865 4.11751 0.910156 4.69629 0.910156C5.29329 0.910156 5.80143 1.02181 6.2207 1.24512C6.63997 1.46842 6.96126 1.7806 7.18457 2.18164C7.40788 2.57812 7.51953 3.04069 7.51953 3.56934H6.20703C6.20703 3.18652 6.12956 2.87891 5.97461 2.64648C5.82422 2.41406 5.62598 2.24544 5.37988 2.14062C5.13379 2.03581 4.86947 1.9834 4.58691 1.9834C4.28613 1.9834 4.0127 2.05859 3.7666 2.20898C3.52507 2.35482 3.33138 2.57129 3.18555 2.8584C3.04427 3.14095 2.97363 3.4873 2.97363 3.89746Z" fill="#262626"/>
</svg>
