<svg width="25" height="24" viewBox="0 0 25 24" fill="none" xmlns="http://www.w3.org/2000/svg">
<path d="M12.3999 3.28125C7.58584 3.28125 3.68115 7.18594 3.68115 12C3.68115 16.8141 7.58584 20.7188 12.3999 20.7188C17.214 20.7188 21.1187 16.8141 21.1187 12C21.1187 7.18594 17.214 3.28125 12.3999 3.28125ZM16.4265 15.6352C16.4546 15.6703 16.471 15.7125 16.471 15.757C16.471 15.8625 16.3866 15.9445 16.2835 15.9445L14.7366 15.9375L12.4093 13.1625L10.0819 15.9398L8.53271 15.9469C8.42959 15.9469 8.34521 15.8625 8.34521 15.7594C8.34521 15.7148 8.36162 15.6727 8.38975 15.6375L11.439 12.007L8.38975 8.37422C8.36142 8.33987 8.34571 8.29686 8.34521 8.25234C8.34521 8.14688 8.42959 8.06484 8.53271 8.06484L10.0819 8.07187L12.4093 10.8469L14.739 8.06953L16.2858 8.0625C16.389 8.0625 16.4733 8.14687 16.4733 8.25C16.4733 8.29453 16.4593 8.33906 16.4312 8.37188L13.3819 12.0047L16.4265 15.6352Z" fill="white"/>
<path d="M16.4733 8.25C16.4733 8.14687 16.389 8.0625 16.2858 8.0625L14.739 8.06953L12.4093 10.8469L10.0819 8.07187L8.53271 8.06484C8.42959 8.06484 8.34521 8.14688 8.34521 8.25234C8.34521 8.29688 8.36162 8.33906 8.38975 8.37422L11.439 12.007L8.38975 15.6375C8.36142 15.6719 8.34571 15.7149 8.34521 15.7594C8.34521 15.8625 8.42959 15.9469 8.53271 15.9469L10.0819 15.9398L12.4093 13.1625L14.7366 15.9375L16.2835 15.9445C16.3866 15.9445 16.471 15.8625 16.471 15.757C16.471 15.7125 16.4546 15.6703 16.4265 15.6352L13.3819 12.0047L16.4312 8.37188C16.4593 8.33906 16.4733 8.29453 16.4733 8.25Z" fill="#40A9FF"/>
</svg>
