<svg width="10" height="10" viewBox="0 0 10 10" fill="none" xmlns="http://www.w3.org/2000/svg">
<path d="M5.90808 4.68457L9.49695 0.406641C9.5571 0.335547 9.50652 0.227539 9.41355 0.227539H8.32253C8.25828 0.227539 8.19675 0.25625 8.15437 0.305469L5.19441 3.83418L2.23445 0.305469C2.19343 0.25625 2.13191 0.227539 2.06628 0.227539H0.975268C0.8823 0.227539 0.831714 0.335547 0.89187 0.406641L4.48074 4.68457L0.89187 8.9625C0.878394 8.97835 0.869749 8.99773 0.866961 9.01834C0.864172 9.03895 0.867357 9.05994 0.876138 9.07879C0.884919 9.09765 0.898927 9.11359 0.916498 9.12473C0.93407 9.13586 0.954467 9.14172 0.975268 9.1416H2.06628C2.13054 9.1416 2.19207 9.11289 2.23445 9.06367L5.19441 5.53496L8.15437 9.06367C8.19538 9.11289 8.25691 9.1416 8.32253 9.1416H9.41355C9.50652 9.1416 9.5571 9.03359 9.49695 8.9625L5.90808 4.68457Z" fill="#8C8C8C"/>
</svg>
