<svg width="14" height="12" viewBox="0 0 14 12" fill="none" xmlns="http://www.w3.org/2000/svg">
<path d="M13.0561 2.32025L10.0154 4.19369L7.09982 0.304628C7.08809 0.288975 7.07288 0.27627 7.05538 0.267519C7.03789 0.258768 7.0186 0.254211 6.99904 0.254211C6.97948 0.254211 6.96019 0.258768 6.9427 0.267519C6.9252 0.27627 6.90999 0.288975 6.89826 0.304628L3.9842 4.19369L0.942009 2.32025C0.852946 2.26557 0.737321 2.339 0.751383 2.44369L1.94513 11.5156C1.96232 11.639 2.06857 11.7343 2.19513 11.7343H11.8061C11.9311 11.7343 12.0389 11.6406 12.0545 11.5156L13.2483 2.44369C13.2608 2.339 13.1467 2.26557 13.0561 2.32025ZM11.0873 10.6656H2.91076L2.07013 4.26869L4.25451 5.614L6.99982 1.9515L9.74513 5.614L11.9295 4.26869L11.0873 10.6656ZM6.99982 5.95307C6.02951 5.95307 5.24045 6.74213 5.24045 7.71244C5.24045 8.68275 6.02951 9.47182 6.99982 9.47182C7.97013 9.47182 8.7592 8.68275 8.7592 7.71244C8.7592 6.74213 7.97013 5.95307 6.99982 5.95307ZM6.99982 8.46713C6.5842 8.46713 6.2467 8.12963 6.2467 7.71244C6.2467 7.29682 6.5842 6.95775 6.99982 6.95775C7.41545 6.95775 7.75295 7.29525 7.75295 7.71244C7.75295 8.12807 7.41545 8.46713 6.99982 8.46713Z" fill="#002766"/>
</svg>
