<svg width="25" height="24" viewBox="0 0 25 24" fill="none" xmlns="http://www.w3.org/2000/svg">
<path opacity="0.1" d="M18.4512 6.75703L16.6977 5.03906L8.02125 13.5375L7.64807 15.6234L9.77472 15.2555L18.4512 6.75703Z" fill="#1890FF"/>
<path d="M21.2954 19.5938H3.68896C3.26554 19.5938 2.92346 19.9289 2.92346 20.3438V21.1875C2.92346 21.2906 3.00958 21.375 3.11484 21.375H21.8696C21.9748 21.375 22.0609 21.2906 22.0609 21.1875V20.3438C22.0609 19.9289 21.7189 19.5938 21.2954 19.5938ZM6.40888 17.625C6.45672 17.625 6.50456 17.6203 6.55241 17.6133L10.5761 16.9219C10.6239 16.9125 10.6694 16.8914 10.7028 16.8563L20.8433 6.92109C20.8655 6.89941 20.8831 6.87366 20.8951 6.8453C20.9071 6.81695 20.9133 6.78656 20.9133 6.75586C20.9133 6.72516 20.9071 6.69477 20.8951 6.66642C20.8831 6.63806 20.8655 6.61231 20.8433 6.59063L16.8675 2.69297C16.8221 2.64844 16.7623 2.625 16.6977 2.625C16.6331 2.625 16.5733 2.64844 16.5278 2.69297L6.38735 12.6281C6.35146 12.6633 6.32993 12.7055 6.32036 12.7523L5.61467 16.6945C5.5914 16.8201 5.59971 16.9493 5.6389 17.071C5.67808 17.1927 5.74694 17.3032 5.83954 17.393C5.99742 17.543 6.19597 17.625 6.40888 17.625ZM8.02121 13.5375L16.6977 5.03906L18.4511 6.75703L9.77468 15.2555L7.64803 15.6234L8.02121 13.5375Z" fill="#1890FF"/>
</svg>
