<svg width="14" height="13" viewBox="0 0 14 13" fill="none" xmlns="http://www.w3.org/2000/svg">
<path d="M12.3333 2.66661H10.3333V1.33327C10.3333 0.597939 9.73534 -6.10352e-05 9.00001 -6.10352e-05H5.00001C4.26468 -6.10352e-05 3.66668 0.597939 3.66668 1.33327V2.66661H1.66668C0.931343 2.66661 0.333344 3.26461 0.333344 3.99994V11.3333C0.333344 12.0686 0.931343 12.6666 1.66668 12.6666H12.3333C13.0687 12.6666 13.6667 12.0686 13.6667 11.3333V3.99994C13.6667 3.26461 13.0687 2.66661 12.3333 2.66661ZM10 3.66652V11.6665H4.00001V3.66652H10ZM9.33334 0.999858V2.66661H4.66668V0.999858H9.33334ZM1.33334 3.66652H3.00001V7.66652V11.6665H2.00001H1.33334V7.66652V3.66652ZM11 11.6665V3.66652H12.6667V11.6665H11Z" fill="#002766"/>
</svg>
