<svg width="16" height="16" viewBox="0 0 16 14" fill="none" xmlns="http://www.w3.org/2000/svg">
<path d="M14.7894 6.89152L8.75192 0.857144L8.34723 0.452456C8.25502 0.360857 8.13033 0.309448 8.00036 0.309448C7.87039 0.309448 7.74569 0.360857 7.65348 0.452456L1.2113 6.89152C1.11681 6.98563 1.04214 7.09772 0.991689 7.22117C0.941237 7.34462 0.916026 7.47692 0.917545 7.61027C0.923795 8.16027 1.38161 8.59933 1.93161 8.59933H2.59567V13.6884H13.405V8.59933H14.0832C14.3504 8.59933 14.6019 8.49464 14.791 8.30558C14.8841 8.21279 14.9578 8.10245 15.008 7.98095C15.0581 7.85945 15.0837 7.72921 15.0832 7.59777C15.0832 7.33214 14.9785 7.08058 14.7894 6.89152ZM8.87536 12.5634H7.12536V9.37589H8.87536V12.5634ZM12.28 7.47433V12.5634H9.87536V9.00089C9.87536 8.65558 9.59567 8.37589 9.25036 8.37589H6.75036C6.40505 8.37589 6.12536 8.65558 6.12536 9.00089V12.5634H3.72067V7.47433H2.22067L8.00192 1.69777L8.36286 2.05871L13.7816 7.47433H12.28Z" fill="#1890FF"/>
</svg>
