<svg width="25" height="24" viewBox="0 0 25 24" fill="none" xmlns="http://www.w3.org/2000/svg">
<path opacity="0.1" d="M17.025 5.27109C15.6961 3.97266 13.9289 3.25781 12.0469 3.25781C10.1648 3.25781 8.39766 3.97266 7.06875 5.26875C5.74453 6.5625 5.01562 8.27813 5.01562 10.1039C5.01562 15.7594 10.5023 19.6477 12.0469 20.6297C13.5914 19.6477 19.0781 15.7594 19.0781 10.1039C19.0781 8.27813 18.3492 6.5625 17.025 5.27109ZM12.0469 14.4141C9.76875 14.4141 7.92188 12.5672 7.92188 10.2891C7.92188 8.01094 9.76875 6.16406 12.0469 6.16406C14.325 6.16406 16.1719 8.01094 16.1719 10.2891C16.1719 12.5672 14.325 14.4141 12.0469 14.4141Z" fill="#1890FF"/>
<path d="M12.0469 6.16406C9.76875 6.16406 7.92188 8.01094 7.92188 10.2891C7.92188 12.5672 9.76875 14.4141 12.0469 14.4141C14.325 14.4141 16.1719 12.5672 16.1719 10.2891C16.1719 8.01094 14.325 6.16406 12.0469 6.16406ZM13.9031 12.1453C13.6597 12.3895 13.3703 12.5831 13.0518 12.715C12.7332 12.847 12.3917 12.9146 12.0469 12.9141C11.3461 12.9141 10.6875 12.6398 10.1906 12.1453C9.94646 11.9018 9.75284 11.6125 9.62091 11.2939C9.48898 10.9754 9.42134 10.6339 9.42188 10.2891C9.42188 9.58828 9.69609 8.92969 10.1906 8.43281C10.6875 7.93594 11.3461 7.66406 12.0469 7.66406C12.7477 7.66406 13.4063 7.93594 13.9031 8.43281C14.4 8.92969 14.6719 9.58828 14.6719 10.2891C14.6719 10.9898 14.4 11.6484 13.9031 12.1453Z" fill="#1890FF"/>
<path d="M20.0766 6.77578C19.6353 5.75831 18.9991 4.83708 18.2039 4.06406C17.4061 3.28406 16.4655 2.66498 15.4336 2.24062C14.3602 1.79531 13.2211 1.57031 12.0469 1.57031C10.8727 1.57031 9.73359 1.79531 8.66016 2.23828C7.62187 2.66719 6.69141 3.28125 5.88984 4.06172C5.09513 4.83517 4.45902 5.7563 4.01719 6.77344C3.56016 7.82812 3.32812 8.94844 3.32812 10.1016C3.32812 11.7563 3.72422 13.4039 4.50234 14.993C5.12813 16.2703 6.00234 17.5148 7.10391 18.6984C8.98594 20.7188 10.9594 21.9539 11.5195 22.2844C11.6785 22.3783 11.8599 22.4277 12.0445 22.4273C12.2273 22.4273 12.4078 22.3805 12.5695 22.2844C13.1297 21.9539 15.1031 20.7188 16.9852 18.6984C18.0867 17.5172 18.9609 16.2703 19.5867 14.993C20.3695 13.4062 20.7656 11.7609 20.7656 10.1039C20.7656 8.95078 20.5336 7.83047 20.0766 6.77578ZM12.0469 20.6297C10.5023 19.6477 5.01562 15.7594 5.01562 10.1039C5.01562 8.27813 5.74453 6.5625 7.06875 5.26875C8.39766 3.97266 10.1648 3.25781 12.0469 3.25781C13.9289 3.25781 15.6961 3.97266 17.025 5.27109C18.3492 6.5625 19.0781 8.27813 19.0781 10.1039C19.0781 15.7594 13.5914 19.6477 12.0469 20.6297Z" fill="#1890FF"/>
</svg>
