<svg width="14" height="15" viewBox="0 0 14 15" fill="none" xmlns="http://www.w3.org/2000/svg">
  <path
    d="M5.20722 1.18457C5.20722 1.05196 5.2599 0.924785 5.35367 0.831017C5.44743 0.737249 5.57461 0.68457 5.70722 0.68457C5.83983 0.68457 5.96701 0.737249 6.06077 0.831017C6.15454 0.924785 6.20722 1.05196 6.20722 1.18457V13.4776C6.2072 13.5764 6.1779 13.673 6.12302 13.7552C6.06814 13.8373 5.99014 13.9014 5.89887 13.9393C5.80761 13.9772 5.70716 13.9871 5.61022 13.968C5.51329 13.9488 5.4242 13.9013 5.35422 13.8316L0.70622 9.18457C0.659657 9.13812 0.622714 9.08295 0.597507 9.0222C0.572301 8.96146 0.559326 8.89634 0.559326 8.83057C0.559326 8.7648 0.572301 8.69968 0.597507 8.63894C0.622714 8.57819 0.659657 8.52302 0.70622 8.47657H0.70822C0.801943 8.38314 0.928883 8.33068 1.06122 8.33068C1.19356 8.33068 1.3205 8.38314 1.41422 8.47657L5.20722 12.2726V1.18457ZM8.20722 1.89157C8.20744 1.79284 8.23688 1.69639 8.29184 1.61436C8.34679 1.53234 8.4248 1.46843 8.51603 1.43067C8.60725 1.39292 8.70762 1.38302 8.80446 1.40222C8.90131 1.42142 8.9903 1.46887 9.06022 1.53857L13.7082 6.18457C13.7548 6.23102 13.7917 6.28619 13.8169 6.34694C13.8421 6.40768 13.8551 6.4728 13.8551 6.53857C13.8551 6.60434 13.8421 6.66946 13.8169 6.7302C13.7917 6.79095 13.7548 6.84612 13.7082 6.89257H13.7062C13.6125 6.986 13.4856 7.03846 13.3532 7.03846C13.2209 7.03846 13.0939 6.986 13.0002 6.89257L9.20722 3.09857V14.1846C9.20722 14.3172 9.15454 14.4444 9.06077 14.5381C8.96701 14.6319 8.83983 14.6846 8.70722 14.6846C8.57461 14.6846 8.44743 14.6319 8.35367 14.5381C8.2599 14.4444 8.20722 14.3172 8.20722 14.1846V1.89157Z"
    fill="#262626" />
</svg>