<svg width="16" height="16" viewBox="0 0 16 16" fill="none" xmlns="http://www.w3.org/2000/svg">
<path d="M4.26457 8L8.41144 2.70156C8.47551 2.62031 8.41769 2.5 8.31301 2.5H7.10519C7.02863 2.5 6.95519 2.53594 6.90832 2.59531L2.91926 7.69219C2.85017 7.78022 2.81262 7.88888 2.81262 8.00078C2.81262 8.11268 2.85017 8.22135 2.91926 8.30937L6.90832 13.4047C6.95519 13.4656 7.02863 13.5 7.10519 13.5H8.31301C8.41769 13.5 8.47551 13.3797 8.41144 13.2984L4.26457 8ZM9.01457 8L13.1614 2.70156C13.2255 2.62031 13.1677 2.5 13.063 2.5H11.8552C11.7786 2.5 11.7052 2.53594 11.6583 2.59531L7.66926 7.69219C7.60017 7.78022 7.56262 7.88888 7.56262 8.00078C7.56262 8.11268 7.60017 8.22135 7.66926 8.30937L11.6583 13.4047C11.7052 13.4656 11.7786 13.5 11.8552 13.5H13.063C13.1677 13.5 13.2255 13.3797 13.1614 13.2984L9.01457 8Z" fill="#40A9FF"/>
</svg>
