<svg width="32" height="32" viewBox="0 0 32 32" fill="none" xmlns="http://www.w3.org/2000/svg">
<g clip-path="url(#clip0_6930_2259)">
<rect width="32" height="32" fill="#D9D9D9"/>
<path d="M22.0904 20.4227C21.7588 19.6372 21.2776 18.9238 20.6736 18.3221C20.0715 17.7186 19.3581 17.2375 18.5731 16.9053C18.566 16.9018 18.559 16.9 18.552 16.8965C19.6471 16.1055 20.359 14.817 20.359 13.3633C20.359 10.9551 18.4078 9.00391 15.9996 9.00391C13.5914 9.00391 11.6402 10.9551 11.6402 13.3633C11.6402 14.817 12.3522 16.1055 13.4473 16.8982C13.4402 16.9018 13.4332 16.9035 13.4262 16.907C12.6387 17.2393 11.932 17.7156 11.3256 18.3238C10.7222 18.926 10.241 19.6393 9.9088 20.4244C9.58241 21.193 9.40638 22.0171 9.39024 22.852C9.38977 22.8707 9.39306 22.8894 9.39992 22.9068C9.40678 22.9243 9.41706 22.9402 9.43017 22.9537C9.44327 22.9671 9.45893 22.9778 9.47623 22.9851C9.49352 22.9923 9.5121 22.9961 9.53087 22.9961H10.5856C10.6629 22.9961 10.7244 22.9346 10.7262 22.859C10.7613 21.502 11.3063 20.2311 12.2695 19.2678C13.2662 18.2711 14.5899 17.7227 15.9996 17.7227C17.4094 17.7227 18.733 18.2711 19.7297 19.2678C20.693 20.2311 21.2379 21.502 21.2731 22.859C21.2748 22.9363 21.3363 22.9961 21.4137 22.9961H22.4684C22.4871 22.9961 22.5057 22.9923 22.523 22.9851C22.5403 22.9778 22.556 22.9671 22.5691 22.9537C22.5822 22.9402 22.5925 22.9243 22.5993 22.9068C22.6062 22.8894 22.6095 22.8707 22.609 22.852C22.5914 22.0117 22.4174 21.1943 22.0904 20.4227ZM15.9996 16.3867C15.1928 16.3867 14.4334 16.0721 13.8621 15.5008C13.2908 14.9295 12.9762 14.1701 12.9762 13.3633C12.9762 12.5564 13.2908 11.7971 13.8621 11.2258C14.4334 10.6545 15.1928 10.3398 15.9996 10.3398C16.8065 10.3398 17.5658 10.6545 18.1371 11.2258C18.7084 11.7971 19.0231 12.5564 19.0231 13.3633C19.0231 14.1701 18.7084 14.9295 18.1371 15.5008C17.5658 16.0721 16.8065 16.3867 15.9996 16.3867Z" fill="white"/>
</g>
<defs>
<clipPath id="clip0_6930_2259">
<rect width="32" height="32" rx="16" fill="white"/>
</clipPath>
</defs>
</svg>
