<svg width="61" height="60" viewBox="0 0 61 60" fill="none" xmlns="http://www.w3.org/2000/svg">
<rect x="0.046875" width="60" height="60" rx="30" fill="#1890FF"/>
<path d="M27.9219 21C29.4763 21 30.9982 21.4458 32.3068 22.2847C33.6155 23.1236 34.656 24.3202 35.305 25.7327C35.954 27.1452 36.1842 28.7142 35.9683 30.2536C35.7524 31.7929 35.0994 33.2381 34.0869 34.4175L41.1419 41.4725L40.2581 42.3562L33.2019 35.3C32.2067 36.151 31.0206 36.7489 29.7446 37.0428C28.4686 37.3366 27.1404 37.3177 25.8733 36.9877C24.6062 36.6576 23.4376 36.0262 22.467 35.1472C21.4965 34.2682 20.7528 33.1677 20.2992 31.9393C19.8457 30.7109 19.6957 29.3911 19.8622 28.0923C20.0286 26.7935 20.5064 25.5542 21.255 24.4799C22.0037 23.4056 23.0008 22.5281 24.1616 21.9222C25.3224 21.3163 26.6125 20.9999 27.9219 21ZM27.9219 22.25C26.0985 22.25 24.3498 22.9743 23.0605 24.2636C21.7712 25.553 21.0469 27.3016 21.0469 29.125C21.0469 30.9484 21.7712 32.697 23.0605 33.9864C24.3498 35.2757 26.0985 36 27.9219 36C29.7453 36 31.4939 35.2757 32.7833 33.9864C34.0726 32.697 34.7969 30.9484 34.7969 29.125C34.7969 27.3016 34.0726 25.553 32.7833 24.2636C31.4939 22.9743 29.7453 22.25 27.9219 22.25Z" fill="white"/>
</svg>
