<svg width="17" height="16" viewBox="0 0 17 16" fill="none" xmlns="http://www.w3.org/2000/svg">
<path d="M14.6125 13.3516L10.5547 9.29375C11.1844 8.47969 11.525 7.48438 11.525 6.4375C11.525 5.18438 11.0359 4.00937 10.1516 3.12344C9.26718 2.2375 8.08906 1.75 6.83749 1.75C5.58593 1.75 4.40781 2.23906 3.52343 3.12344C2.63749 4.00781 2.14999 5.18438 2.14999 6.4375C2.14999 7.68906 2.63906 8.86719 3.52343 9.75156C4.40781 10.6375 5.58437 11.125 6.83749 11.125C7.88437 11.125 8.87812 10.7844 9.69218 10.1562L13.75 14.2125C13.7619 14.2244 13.776 14.2338 13.7916 14.2403C13.8071 14.2467 13.8238 14.2501 13.8406 14.2501C13.8575 14.2501 13.8741 14.2467 13.8897 14.2403C13.9052 14.2338 13.9193 14.2244 13.9312 14.2125L14.6125 13.5328C14.6244 13.5209 14.6338 13.5068 14.6403 13.4912C14.6467 13.4757 14.65 13.459 14.65 13.4422C14.65 13.4254 14.6467 13.4087 14.6403 13.3931C14.6338 13.3776 14.6244 13.3635 14.6125 13.3516ZM9.31249 8.9125C8.64999 9.57344 7.77187 9.9375 6.83749 9.9375C5.90312 9.9375 5.02499 9.57344 4.36249 8.9125C3.70156 8.25 3.33749 7.37187 3.33749 6.4375C3.33749 5.50312 3.70156 4.62344 4.36249 3.9625C5.02499 3.30156 5.90312 2.9375 6.83749 2.9375C7.77187 2.9375 8.65156 3.3 9.31249 3.9625C9.97343 4.625 10.3375 5.50312 10.3375 6.4375C10.3375 7.37187 9.97343 8.25156 9.31249 8.9125Z" fill="#40A9FF"/>
</svg>
