<svg width="17" height="16" viewBox="0 0 17 16" fill="none" xmlns="http://www.w3.org/2000/svg">
<path d="M14.5792 13.3516L10.5214 9.29375C11.1511 8.47969 11.4917 7.48438 11.4917 6.4375C11.4917 5.18438 11.0026 4.00937 10.1183 3.12344C9.23389 2.2375 8.05576 1.75 6.8042 1.75C5.55264 1.75 4.37451 2.23906 3.49014 3.12344C2.6042 4.00781 2.1167 5.18438 2.1167 6.4375C2.1167 7.68906 2.60576 8.86719 3.49014 9.75156C4.37451 10.6375 5.55107 11.125 6.8042 11.125C7.85107 11.125 8.84482 10.7844 9.65889 10.1562L13.7167 14.2125C13.7286 14.2244 13.7427 14.2338 13.7583 14.2403C13.7738 14.2467 13.7905 14.2501 13.8073 14.2501C13.8242 14.2501 13.8408 14.2467 13.8564 14.2403C13.8719 14.2338 13.8861 14.2244 13.8979 14.2125L14.5792 13.5328C14.5911 13.5209 14.6005 13.5068 14.607 13.4912C14.6134 13.4757 14.6168 13.459 14.6168 13.4422C14.6168 13.4254 14.6134 13.4087 14.607 13.3931C14.6005 13.3776 14.5911 13.3635 14.5792 13.3516ZM9.2792 8.9125C8.6167 9.57344 7.73857 9.9375 6.8042 9.9375C5.86982 9.9375 4.9917 9.57344 4.3292 8.9125C3.66826 8.25 3.3042 7.37187 3.3042 6.4375C3.3042 5.50312 3.66826 4.62344 4.3292 3.9625C4.9917 3.30156 5.86982 2.9375 6.8042 2.9375C7.73857 2.9375 8.61826 3.3 9.2792 3.9625C9.94014 4.625 10.3042 5.50312 10.3042 6.4375C10.3042 7.37187 9.94014 8.25156 9.2792 8.9125Z" fill="#91D5FF"/>
</svg>
