<svg width="25" height="25" viewBox="0 0 25 25" fill="none" xmlns="http://www.w3.org/2000/svg">
<path d="M19.8786 10.8515L17.7552 4.21162C17.7414 4.16719 17.7137 4.12838 17.6761 4.10094C17.6385 4.0735 17.5931 4.05889 17.5466 4.05927H15.7325C15.6364 4.05927 15.5544 4.12021 15.5239 4.21162L13.3841 10.8515C13.3771 10.8726 13.3724 10.896 13.3724 10.9194C13.3724 11.039 13.4708 11.1374 13.5903 11.1374H14.9122C15.0107 11.1374 15.095 11.0718 15.1232 10.978L15.5333 9.53427H17.6193L18.0247 10.9757C18.0505 11.0694 18.1372 11.1351 18.2357 11.1351H19.67C19.6935 11.1351 19.7146 11.1327 19.7357 11.1257C19.7919 11.1069 19.8364 11.0694 19.8646 11.0179C19.8903 10.9663 19.895 10.9077 19.8786 10.8515ZM15.7466 8.31318L16.5153 5.57333H16.663L17.4153 8.31318H15.7466ZM19.1099 19.8655H16.0724V19.8561L19.1802 15.4288C19.206 15.3913 19.22 15.3491 19.22 15.3022V14.4491C19.22 14.3296 19.1216 14.2311 19.0021 14.2311H14.2208C14.1013 14.2311 14.0028 14.3296 14.0028 14.4491V15.4569C14.0028 15.5765 14.1013 15.6749 14.2208 15.6749H17.0943V15.6843L13.9747 20.1116C13.9487 20.1487 13.9348 20.1929 13.9349 20.2382V21.0913C13.9349 21.2108 14.0333 21.3093 14.1528 21.3093H19.1075C19.2271 21.3093 19.3255 21.2108 19.3255 21.0913V20.0835C19.3258 20.055 19.3205 20.0267 19.3098 20.0003C19.2991 19.9738 19.2832 19.9498 19.2632 19.9295C19.2431 19.9092 19.2193 19.8931 19.1929 19.8822C19.1666 19.8712 19.1384 19.8655 19.1099 19.8655ZM9.9505 17.1374H8.16925V4.71552C8.16925 4.6124 8.08488 4.52802 7.98175 4.52802H6.66925C6.56613 4.52802 6.48175 4.6124 6.48175 4.71552V17.1374H4.7005C4.54347 17.1374 4.45441 17.3202 4.55285 17.4421L7.17785 20.7679C7.19539 20.7903 7.2178 20.8084 7.24338 20.8209C7.26896 20.8333 7.29705 20.8398 7.3255 20.8398C7.35396 20.8398 7.38205 20.8333 7.40763 20.8209C7.43321 20.8084 7.45562 20.7903 7.47316 20.7679L10.0982 17.4421C10.1943 17.3202 10.1075 17.1374 9.9505 17.1374Z" fill="#1890FF"/>
</svg>
