<svg width="14" height="14" viewBox="0 0 14 14" fill="none" xmlns="http://www.w3.org/2000/svg">
<path d="M3.87713 8.24161C3.92557 8.29005 4.00526 8.29005 4.0537 8.24161L5.64432 6.65099L6.98964 7.99786C7.03807 8.0463 7.11776 8.0463 7.1662 7.99786L10.7021 4.4588C10.7506 4.41036 10.7506 4.33067 10.7021 4.28224L10.1271 3.70723C10.0787 3.6588 9.99901 3.6588 9.95058 3.70723L7.0787 6.58224L5.73339 5.23536C5.68495 5.18692 5.60526 5.18692 5.55682 5.23536L3.30213 7.49005C3.2537 7.53849 3.2537 7.61817 3.30213 7.66661L3.87713 8.24161Z" fill="#002766"/>
<path d="M13.125 1.5H7.5625V0.5C7.5625 0.43125 7.50625 0.375 7.4375 0.375H6.5625C6.49375 0.375 6.4375 0.43125 6.4375 0.5V1.5H0.875C0.598437 1.5 0.375 1.72344 0.375 2V10.125C0.375 10.4016 0.598437 10.625 0.875 10.625H6.44375V11.125L3.86875 12.8141C3.81094 12.8516 3.79531 12.9281 3.83281 12.9859L4.30625 13.7234V13.725C4.34375 13.7828 4.42188 13.7984 4.47969 13.7609L7 12.1078L9.52031 13.7609C9.57812 13.7984 9.65625 13.7828 9.69375 13.725V13.7234L10.1672 12.9859C10.2047 12.9281 10.1875 12.8516 10.1313 12.8141L7.5625 11.1297V10.625H13.125C13.4016 10.625 13.625 10.4016 13.625 10.125V2C13.625 1.72344 13.4016 1.5 13.125 1.5ZM12.5 9.5H1.5V2.625H12.5V9.5Z" fill="#002766"/>
</svg>
