<svg width="37" height="36" viewBox="0 0 37 36" fill="none" xmlns="http://www.w3.org/2000/svg">
<path d="M35.9934 14.9197L35.984 14.8822L30.7247 1.51816C30.4903 0.763476 29.7919 0.243164 28.9997 0.243164H7.68092C6.88404 0.243164 6.17623 0.772852 5.95123 1.53691L1.03404 14.765L1.01998 14.7979L1.01061 14.8354C0.949668 15.065 0.930918 15.2994 0.96373 15.5291C0.959043 15.6041 0.954355 15.6791 0.954355 15.7541V32.9057C0.955595 33.6611 1.25626 34.3853 1.79047 34.9195C2.32468 35.4538 3.04887 35.7544 3.80436 35.7557H33.2044C34.7747 35.7557 36.0544 34.476 36.059 32.9057V15.7541C36.059 15.6932 36.059 15.6322 36.0544 15.5807C36.0731 15.351 36.0544 15.1307 35.9934 14.9197ZM22.1278 12.9041L22.1137 13.64C22.0762 15.7447 20.6231 17.1604 18.4997 17.1604C17.4637 17.1604 16.5731 16.8275 15.9309 16.1947C15.2887 15.5619 14.9372 14.6807 14.9184 13.64L14.9044 12.9041H5.25748L8.98404 3.84316H27.6965L31.5262 12.9041H22.1278ZM4.54967 16.5041H11.9231C13.0622 19.1807 15.4856 20.7604 18.5044 20.7604C20.084 20.7604 21.5512 20.3197 22.7372 19.4853C23.7778 18.7541 24.5887 17.7322 25.1137 16.5041H32.4497V32.1557H4.54967V16.5041Z" fill="#40A9FF"/>
</svg>
