<svg width="16" height="16" viewBox="0 0 16 16" fill="none" xmlns="http://www.w3.org/2000/svg">
<path d="M13.7516 2.40625H2.2485C1.86569 2.40625 1.62662 2.82344 1.81881 3.15625L5.45319 9.49063V13.0938C5.45319 13.3703 5.67506 13.5938 5.95006 13.5938H10.0501C10.3251 13.5938 10.5469 13.3703 10.5469 13.0938V9.49063L14.1829 3.15625C14.3735 2.82344 14.1344 2.40625 13.7516 2.40625ZM9.42819 12.4688H6.57194V10.1562H9.42975V12.4688H9.42819ZM9.57819 8.92813L9.44694 9.15625H6.55162L6.42037 8.92813L5.22506 6.84375H10.7751L9.57819 8.92813ZM11.3485 5.84375H4.65162L3.3235 3.53125H12.6766L11.3485 5.84375Z" fill="white"/>
</svg>
