<svg width="31" height="30" viewBox="0 0 31 30" fill="none" xmlns="http://www.w3.org/2000/svg">
<path d="M20.538 18.8203C21.247 18.4395 22.0585 18.2227 22.9228 18.2227H22.9257C23.0136 18.2227 23.0546 18.1172 22.9902 18.0586C22.0914 17.252 21.0647 16.6005 19.9521 16.1309C19.9404 16.125 19.9287 16.1221 19.9169 16.1162C21.7363 14.7949 22.9199 12.6475 22.9199 10.2246C22.9199 6.21094 19.6738 2.95898 15.6689 2.95898C11.664 2.95898 8.42085 6.21094 8.42085 10.2246C8.42085 12.6475 9.60444 14.7949 11.4267 16.1162C11.415 16.1221 11.4033 16.125 11.3916 16.1309C10.082 16.6846 8.90718 17.4785 7.89644 18.4922C6.89153 19.4953 6.0915 20.6844 5.54097 21.9932C4.99931 23.2748 4.70698 24.6479 4.67964 26.0391C4.67886 26.0703 4.68434 26.1014 4.69577 26.1306C4.7072 26.1597 4.72434 26.1862 4.74618 26.2086C4.76802 26.231 4.79412 26.2488 4.82295 26.2609C4.85177 26.2731 4.88274 26.2793 4.91401 26.2793H6.6689C6.79487 26.2793 6.90034 26.1768 6.90327 26.0508C6.96187 23.7891 7.86714 21.6709 9.46968 20.0654C11.125 18.4043 13.3281 17.4902 15.6718 17.4902C17.333 17.4902 18.9267 17.9502 20.3007 18.8115C20.336 18.8337 20.3765 18.8462 20.4182 18.8477C20.4599 18.8493 20.5012 18.8398 20.538 18.8203ZM15.6718 15.2637C14.33 15.2637 13.0673 14.7393 12.1152 13.7871C11.6467 13.3199 11.2753 12.7645 11.0224 12.1531C10.7695 11.5417 10.6401 10.8863 10.6416 10.2246C10.6416 8.87988 11.166 7.61426 12.1152 6.66211C13.0644 5.70996 14.3271 5.18555 15.6718 5.18555C17.0166 5.18555 18.2763 5.70996 19.2285 6.66211C19.6969 7.12937 20.0683 7.6847 20.3212 8.29612C20.5742 8.90753 20.7036 9.56295 20.7021 10.2246C20.7021 11.5693 20.1777 12.835 19.2285 13.7871C18.2763 14.7393 17.0136 15.2637 15.6718 15.2637ZM26.4472 22.2363H23.9863V19.7754C23.9863 19.6465 23.8808 19.541 23.7519 19.541H22.1113C21.9824 19.541 21.8769 19.6465 21.8769 19.7754V22.2363H19.416C19.2871 22.2363 19.1816 22.3418 19.1816 22.4707V24.1113C19.1816 24.2402 19.2871 24.3457 19.416 24.3457H21.8769V26.8066C21.8769 26.9355 21.9824 27.041 22.1113 27.041H23.7519C23.8808 27.041 23.9863 26.9355 23.9863 26.8066V24.3457H26.4472C26.5761 24.3457 26.6816 24.2402 26.6816 24.1113V22.4707C26.6816 22.3418 26.5761 22.2363 26.4472 22.2363Z" fill="#52C41A"/>
</svg>
