<svg width="31" height="30" viewBox="0 0 31 30" fill="none" xmlns="http://www.w3.org/2000/svg">
<path d="M22.5691 9.81445C22.5691 5.80078 19.3172 2.54883 15.3035 2.54883C11.2899 2.54883 8.0379 5.80078 8.0379 9.81445C8.0379 12.2402 9.22735 14.3906 11.0555 15.709C11.0438 15.7148 11.035 15.7178 11.0291 15.7207C9.71954 16.2744 8.54474 17.0684 7.53399 18.082C6.52325 19.0928 5.73224 20.2705 5.17853 21.583C4.63653 22.8662 4.3465 24.2285 4.3172 25.6289C4.31427 25.7607 4.41974 25.8691 4.55157 25.8691H6.30646C6.43243 25.8691 6.5379 25.7666 6.54083 25.6406C6.59942 23.3789 7.5047 21.2607 9.10724 19.6553C10.7625 17.9941 12.9598 17.0801 15.3035 17.0801C19.3172 17.0801 22.5691 13.8281 22.5691 9.81445ZM15.3035 14.8535C12.5203 14.8535 10.2645 12.5977 10.2645 9.81445C10.2645 7.03125 12.5203 4.77539 15.3035 4.77539C18.0867 4.77539 20.3426 7.03125 20.3426 9.81445C20.3426 12.5977 18.0867 14.8535 15.3035 14.8535ZM18.3797 21.3281H26.1141C26.243 21.3281 26.3484 21.2227 26.3484 21.0938V19.4531C26.3484 19.3242 26.243 19.2188 26.1141 19.2188H20.9432L22.326 17.458C22.3582 17.417 22.3758 17.3643 22.3758 17.3145C22.3758 17.1855 22.2703 17.0801 22.1414 17.0801H20.0145C19.8709 17.0801 19.7361 17.1475 19.6453 17.2588L17.6385 19.8105C17.5096 19.9746 17.4393 20.1797 17.4393 20.3906C17.4422 20.9092 17.8611 21.3281 18.3797 21.3281ZM25.4109 23.2031H17.6766C17.5477 23.2031 17.4422 23.3086 17.4422 23.4375V25.0781C17.4422 25.207 17.5477 25.3125 17.6766 25.3125H22.8475L21.4647 27.0732C21.4324 27.1143 21.4149 27.167 21.4149 27.2168C21.4149 27.3457 21.5203 27.4512 21.6492 27.4512H23.7762C23.9197 27.4512 24.0545 27.3838 24.1453 27.2725L26.1522 24.7207C26.2811 24.5566 26.3514 24.3516 26.3514 24.1406C26.3484 23.6221 25.9295 23.2031 25.4109 23.2031Z" fill="#722ED1"/>
</svg>
