<svg width="12" height="12" viewBox="0 0 12 12" fill="none" xmlns="http://www.w3.org/2000/svg">
<path d="M6.60688 6L9.68305 2.3332C9.73461 2.27227 9.69126 2.17969 9.61157 2.17969H8.67641C8.62133 2.17969 8.5686 2.2043 8.53227 2.24648L5.99516 5.27109L3.45805 2.24648C3.4229 2.2043 3.37016 2.17969 3.31391 2.17969H2.37876C2.29907 2.17969 2.25571 2.27227 2.30727 2.3332L5.38344 6L2.30727 9.6668C2.29572 9.68038 2.28831 9.69699 2.28592 9.71466C2.28353 9.73233 2.28626 9.75031 2.29379 9.76648C2.30131 9.78264 2.31332 9.79631 2.32838 9.80585C2.34344 9.81539 2.36093 9.82041 2.37876 9.82031H3.31391C3.36899 9.82031 3.42172 9.7957 3.45805 9.75352L5.99516 6.72891L8.53227 9.75352C8.56743 9.7957 8.62016 9.82031 8.67641 9.82031H9.61157C9.69126 9.82031 9.73461 9.72774 9.68305 9.6668L6.60688 6Z" fill="#40A9FF"/>
</svg>
