<svg width="19" height="19" viewBox="0 0 19 19" fill="none" xmlns="http://www.w3.org/2000/svg">
<path d="M16.3906 9.5H15.4062C15.3289 9.5 15.2656 9.56328 15.2656 9.64062V15.2656H3.73438V3.73438H9.35938C9.43672 3.73438 9.5 3.67109 9.5 3.59375V2.60938C9.5 2.53203 9.43672 2.46875 9.35938 2.46875H3.03125C2.72012 2.46875 2.46875 2.72012 2.46875 3.03125V15.9688C2.46875 16.2799 2.72012 16.5312 3.03125 16.5312H15.9688C16.2799 16.5312 16.5312 16.2799 16.5312 15.9688V9.64062C16.5312 9.56328 16.468 9.5 16.3906 9.5Z" fill="#8C8C8C"/>
<path d="M6.75672 9.90254L6.72333 11.9926C6.72157 12.149 6.84813 12.2773 7.00458 12.2773H7.01161L9.08583 12.2264C9.12098 12.2246 9.15614 12.2105 9.18075 12.1859L16.4915 4.89102C16.546 4.83652 16.546 4.74687 16.4915 4.69238L14.3065 2.50918C14.2784 2.48105 14.2432 2.46875 14.2063 2.46875C14.1694 2.46875 14.1343 2.48281 14.1061 2.50918L6.79716 9.8041C6.77177 9.83065 6.75733 9.86581 6.75672 9.90254ZM7.87294 10.3174L14.2063 3.99805L15.0009 4.79082L8.66395 11.1137L7.86063 11.133L7.87294 10.3174Z" fill="#8C8C8C"/>
</svg>
