<svg width="17" height="17" viewBox="0 0 17 17" fill="none" xmlns="http://www.w3.org/2000/svg">
<path d="M7.16671 7.1665C7.5349 7.1665 7.83337 7.46498 7.83337 7.83317V11.8332C7.83337 12.2014 7.5349 12.4998 7.16671 12.4998C6.79852 12.4998 6.50004 12.2014 6.50004 11.8332V7.83317C6.50004 7.46498 6.79852 7.1665 7.16671 7.1665Z" fill="#8C8C8C"/>
<path d="M10.5 11.8332V7.83317C10.5 7.46498 10.2016 7.1665 9.83337 7.1665C9.46518 7.1665 9.16671 7.46498 9.16671 7.83317V11.8332C9.16671 12.2014 9.46518 12.4998 9.83337 12.4998C10.2016 12.4998 10.5 12.2014 10.5 11.8332Z" fill="#8C8C8C"/>
<path fill-rule="evenodd" clip-rule="evenodd" d="M5.16671 3.83317V3.1665C5.16671 2.63607 5.37742 2.12736 5.75249 1.75229C6.12757 1.37722 6.63627 1.1665 7.16671 1.1665H9.83337C10.3638 1.1665 10.8725 1.37722 11.2476 1.75229C11.6227 2.12736 11.8334 2.63607 11.8334 3.1665V3.83317H14.5C14.8682 3.83317 15.1667 4.13165 15.1667 4.49984C15.1667 4.86803 14.8682 5.1665 14.5 5.1665H13.8334V13.8332C13.8334 14.3636 13.6227 14.8723 13.2476 15.2474C12.8725 15.6225 12.3638 15.8332 11.8334 15.8332H5.16671C4.63627 15.8332 4.12757 15.6225 3.75249 15.2474C3.37742 14.8723 3.16671 14.3636 3.16671 13.8332V5.1665H2.50004C2.13185 5.1665 1.83337 4.86803 1.83337 4.49984C1.83337 4.13165 2.13185 3.83317 2.50004 3.83317H5.16671ZM6.6953 2.6951C6.82033 2.57007 6.9899 2.49984 7.16671 2.49984H9.83337C10.0102 2.49984 10.1798 2.57007 10.3048 2.6951C10.4298 2.82012 10.5 2.98969 10.5 3.1665V3.83317H6.50004V3.1665C6.50004 2.98969 6.57028 2.82012 6.6953 2.6951ZM4.50004 5.1665V13.8332C4.50004 14.01 4.57028 14.1795 4.6953 14.3046C4.82033 14.4296 4.9899 14.4998 5.16671 14.4998H11.8334C12.0102 14.4998 12.1798 14.4296 12.3048 14.3046C12.4298 14.1795 12.5 14.01 12.5 13.8332V5.1665H4.50004Z" fill="#8C8C8C"/>
</svg>
