<svg width="17" height="17" viewBox="0 0 17 17" fill="none" xmlns="http://www.w3.org/2000/svg">
<g clip-path="url(#clip0_2792_73530)">
<path d="M12.3048 0.695262C12.0444 0.434913 11.6223 0.434913 11.362 0.695262C11.1016 0.955612 11.1016 1.37772 11.362 1.63807L12.8906 3.16667H5.16671C4.28265 3.16667 3.43481 3.51786 2.80968 4.14298C2.18456 4.7681 1.83337 5.61595 1.83337 6.5V7.83333C1.83337 8.20152 2.13185 8.5 2.50004 8.5C2.86823 8.5 3.16671 8.20152 3.16671 7.83333V6.5C3.16671 5.96957 3.37742 5.46086 3.75249 5.08579C4.12757 4.71071 4.63627 4.5 5.16671 4.5H12.8906L11.362 6.0286C11.1016 6.28895 11.1016 6.71106 11.362 6.9714C11.6223 7.23175 12.0444 7.23175 12.3048 6.9714L14.9714 4.30474C15.2318 4.04439 15.2318 3.62228 14.9714 3.36193L12.3048 0.695262Z" fill="#8C8C8C"/>
<path d="M5.63811 10.0286C5.89846 10.2889 5.89846 10.7111 5.63811 10.9714L4.10952 12.5H11.8334C12.3638 12.5 12.8725 12.2893 13.2476 11.9142C13.6227 11.5391 13.8334 11.0304 13.8334 10.5V9.16667C13.8334 8.79848 14.1319 8.5 14.5 8.5C14.8682 8.5 15.1667 8.79848 15.1667 9.16667V10.5C15.1667 11.3841 14.8155 12.2319 14.1904 12.857C13.5653 13.4821 12.7174 13.8333 11.8334 13.8333H4.10952L5.63811 15.3619C5.89846 15.6223 5.89846 16.0444 5.63811 16.3047C5.37776 16.5651 4.95565 16.5651 4.6953 16.3047L2.02864 13.6381C1.76829 13.3777 1.76829 12.9556 2.02864 12.6953L4.6953 10.0286C4.95565 9.76825 5.37776 9.76825 5.63811 10.0286Z" fill="#8C8C8C"/>
</g>
<defs>
<clipPath id="clip0_2792_73530">
<rect width="16" height="16" fill="white" transform="translate(0.5 0.5)"/>
</clipPath>
</defs>
</svg>
