<svg width="14" height="14" viewBox="0 0 14 14" fill="none" xmlns="http://www.w3.org/2000/svg">
<path fill-rule="evenodd" clip-rule="evenodd" d="M5.36929 4.646H7.84529V5.87933C8.20196 5.17 9.11663 4.53267 10.4906 4.53267C13.1246 4.53267 13.75 5.94467 13.75 8.53533V13.3333H11.0833V9.12533C11.0833 7.65 10.7266 6.818 9.81863 6.818C8.55929 6.818 8.03596 7.71467 8.03596 9.12467V13.3333H5.36929V4.646ZM0.796626 13.22H3.46329V4.53267H0.796626V13.22ZM3.84529 1.7C3.84539 1.92352 3.80106 2.14482 3.71488 2.35106C3.6287 2.55729 3.50239 2.74434 3.34329 2.90133C3.02089 3.22175 2.5845 3.4011 2.12996 3.4C1.67622 3.3997 1.24083 3.2208 0.917959 2.902C0.759434 2.74447 0.63355 2.55722 0.547522 2.35095C0.461494 2.14469 0.417012 1.92348 0.416626 1.7C0.416626 1.24867 0.596626 0.816667 0.918626 0.498C1.24122 0.178772 1.67679 -0.000199474 2.13063 1.66843e-07C2.58529 1.66843e-07 3.02129 0.179333 3.34329 0.498C3.66463 0.816667 3.84529 1.24867 3.84529 1.7Z" fill="#395FAC"/>
</svg>
