<svg width="62" height="40" viewBox="0 0 62 40" fill="none" xmlns="http://www.w3.org/2000/svg">
<path d="M38.5 14.5H25.5C25.2234 14.5 25 14.7234 25 15V25C25 25.2766 25.2234 25.5 25.5 25.5H38.5C38.7766 25.5 39 25.2766 39 25V15C39 14.7234 38.7766 14.5 38.5 14.5ZM37.875 16.2312V24.375H26.125V16.2312L25.6938 15.8953L26.3078 15.1063L26.9766 15.6266H37.025L37.6938 15.1063L38.3078 15.8953L37.875 16.2312ZM37.025 15.625L32 19.5312L26.975 15.625L26.3063 15.1047L25.6922 15.8937L26.1234 16.2297L31.4609 20.3797C31.6144 20.4989 31.8033 20.5637 31.9977 20.5637C32.192 20.5637 32.3809 20.4989 32.5344 20.3797L37.875 16.2312L38.3062 15.8953L37.6922 15.1063L37.025 15.625Z" fill="#002766"/>
</svg>
