<svg width="16" height="16" viewBox="0 0 16 16" fill="none" xmlns="http://www.w3.org/2000/svg">
<path d="M14.2044 3.27031L13.3232 3.95937C12.1216 2.42344 10.2529 1.4375 8.15445 1.4375C4.53101 1.4375 1.5982 4.36719 1.59351 7.99219C1.58882 11.6203 4.52789 14.5625 8.15445 14.5625C10.9873 14.5625 13.4013 12.7656 14.3201 10.2484C14.3435 10.1828 14.3091 10.1094 14.2435 10.0875L13.3576 9.78281C13.3267 9.77222 13.2929 9.77414 13.2634 9.78816C13.2339 9.80218 13.2111 9.82718 13.1998 9.85781C13.1716 9.93594 13.1404 10.0141 13.1076 10.0906C12.8373 10.7312 12.4498 11.3063 11.956 11.8C11.4662 12.2907 10.8864 12.6822 10.2482 12.9531C9.58726 13.2328 8.88257 13.375 8.15757 13.375C7.43101 13.375 6.72789 13.2328 6.06695 12.9531C5.42816 12.6834 4.84807 12.2917 4.35914 11.8C3.86804 11.3103 3.47692 10.7297 3.20757 10.0906C2.92789 9.42812 2.7857 8.725 2.7857 7.99844C2.7857 7.27187 2.92789 6.56875 3.20757 5.90625C3.47789 5.26562 3.86539 4.69063 4.35914 4.19688C4.85289 3.70312 5.42789 3.31563 6.06695 3.04375C6.72789 2.76406 7.43257 2.62188 8.15757 2.62188C8.88414 2.62188 9.58726 2.76406 10.2482 3.04375C10.887 3.31351 11.4671 3.70519 11.956 4.19688C12.1107 4.35156 12.256 4.51562 12.3904 4.6875L11.4498 5.42188C11.4312 5.43627 11.417 5.45563 11.4089 5.47772C11.4008 5.49981 11.3991 5.52374 11.404 5.54676C11.4089 5.56977 11.4202 5.59094 11.4366 5.60782C11.453 5.6247 11.4738 5.63661 11.4966 5.64219L14.2404 6.31406C14.3185 6.33281 14.3951 6.27344 14.3951 6.19375L14.4076 3.36719C14.406 3.26406 14.2857 3.20625 14.2044 3.27031Z" fill="#262626"/>
</svg>
