<svg width="16" height="16" viewBox="0 0 16 16" fill="none" xmlns="http://www.w3.org/2000/svg">
<path d="M13.1191 6.77813L11.7035 2.35157C11.6943 2.32195 11.6758 2.29608 11.6507 2.27778C11.6257 2.25949 11.5954 2.24975 11.5644 2.25H10.355C10.291 2.25 10.2363 2.29063 10.216 2.35157L8.78939 6.77813C8.7847 6.79219 8.78158 6.80782 8.78158 6.82344C8.78158 6.90313 8.8472 6.96875 8.92689 6.96875H9.80814C9.87376 6.96875 9.93001 6.925 9.94876 6.8625L10.2222 5.9H11.6128L11.8831 6.86094C11.9003 6.92344 11.9581 6.96719 12.0238 6.96719H12.98C12.9956 6.96719 13.0097 6.96563 13.0238 6.96094C13.0613 6.94844 13.091 6.92344 13.1097 6.88907C13.1269 6.85469 13.13 6.81563 13.1191 6.77813ZM10.3644 5.08594L10.8769 3.25938H10.9753L11.4769 5.08594H10.3644ZM12.6066 12.7875H10.5816V12.7813L12.6535 9.82969C12.6706 9.80469 12.68 9.77657 12.68 9.74532V9.17657C12.68 9.09688 12.6144 9.03125 12.5347 9.03125H9.3472C9.26751 9.03125 9.20189 9.09688 9.20189 9.17657V9.84844C9.20189 9.92813 9.26751 9.99375 9.3472 9.99375H11.2628V10L9.18314 12.9516C9.16578 12.9763 9.1565 13.0057 9.15658 13.0359V13.6047C9.15658 13.6844 9.2222 13.75 9.30189 13.75H12.605C12.6847 13.75 12.7503 13.6844 12.7503 13.6047V12.9328C12.7505 12.9138 12.747 12.8949 12.7398 12.8773C12.7327 12.8597 12.7221 12.8437 12.7088 12.8302C12.6954 12.8166 12.6795 12.8059 12.662 12.7986C12.6444 12.7913 12.6256 12.7875 12.6066 12.7875ZM6.50033 10.9688H5.31283V2.6875C5.31283 2.61875 5.25658 2.5625 5.18783 2.5625H4.31283C4.24408 2.5625 4.18783 2.61875 4.18783 2.6875V10.9688H3.00033C2.89564 10.9688 2.83626 11.0906 2.90189 11.1719L4.65189 13.3891C4.66358 13.404 4.67852 13.4161 4.69558 13.4244C4.71263 13.4327 4.73136 13.437 4.75033 13.437C4.7693 13.437 4.78802 13.4327 4.80508 13.4244C4.82213 13.4161 4.83707 13.404 4.84876 13.3891L6.59876 11.1719C6.66283 11.0906 6.60501 10.9688 6.50033 10.9688Z" fill="#1890FF"/>
</svg>
