<svg width="16" height="16" viewBox="0 0 16 16" fill="none" xmlns="http://www.w3.org/2000/svg">
<path d="M6.00727 1.5C6.00727 1.36739 6.05995 1.24021 6.15372 1.14645C6.24748 1.05268 6.37466 1 6.50727 1C6.63988 1 6.76705 1.05268 6.86082 1.14645C6.95459 1.24021 7.00727 1.36739 7.00727 1.5V13.793C7.00725 13.8918 6.97795 13.9884 6.92307 14.0706C6.86819 14.1528 6.79019 14.2168 6.69892 14.2547C6.60766 14.2926 6.50721 14.3026 6.41027 14.2834C6.31334 14.2642 6.22425 14.2168 6.15427 14.147L1.50627 9.5C1.45971 9.45355 1.42276 9.39838 1.39756 9.33763C1.37235 9.27689 1.35938 9.21177 1.35938 9.146C1.35938 9.08023 1.37235 9.01511 1.39756 8.95437C1.42276 8.89362 1.45971 8.83845 1.50627 8.792H1.50827C1.60199 8.69857 1.72893 8.64611 1.86127 8.64611C1.99361 8.64611 2.12055 8.69857 2.21427 8.792L6.00727 12.588V1.5ZM9.00727 2.207C9.00749 2.10827 9.03693 2.01181 9.09189 1.92979C9.14684 1.84777 9.22485 1.78386 9.31608 1.7461C9.4073 1.70835 9.50766 1.69845 9.60451 1.71765C9.70135 1.73685 9.79035 1.7843 9.86027 1.854L14.5083 6.5C14.5548 6.54645 14.5918 6.60162 14.617 6.66237C14.6422 6.72311 14.6552 6.78823 14.6552 6.854C14.6552 6.91977 14.6422 6.98489 14.617 7.04563C14.5918 7.10638 14.5548 7.16155 14.5083 7.208H14.5063C14.4125 7.30143 14.2856 7.35389 14.1533 7.35389C14.0209 7.35389 13.894 7.30143 13.8003 7.208L10.0073 3.414V14.5C10.0073 14.6326 9.95459 14.7598 9.86082 14.8536C9.76705 14.9473 9.63988 15 9.50727 15C9.37466 15 9.24748 14.9473 9.15372 14.8536C9.05995 14.7598 9.00727 14.6326 9.00727 14.5V2.207Z" fill="#1890FF"/>
</svg>
