<svg width="16" height="16" viewBox="0 0 16 16" fill="none" xmlns="http://www.w3.org/2000/svg">
<path d="M13.3334 4.66667H11.3334V3.33333C11.3334 2.598 10.7354 2 10 2H6.00004C5.26471 2 4.66671 2.598 4.66671 3.33333V4.66667H2.66671C1.93137 4.66667 1.33337 5.26467 1.33337 6V13.3333C1.33337 14.0687 1.93137 14.6667 2.66671 14.6667H13.3334C14.0687 14.6667 14.6667 14.0687 14.6667 13.3333V6C14.6667 5.26467 14.0687 4.66667 13.3334 4.66667ZM11 5.66658V13.6666H5.00004V5.66658H11ZM10.3334 2.99992V4.66667H5.66671V2.99992H10.3334ZM2.33337 5.66658H4.00004V9.66658V13.6666H3.00004H2.33337V9.66658V5.66658ZM12 13.6666V5.66658H13.6667V13.6666H12Z" fill="currentColor"/>
</svg>
