<svg width="16" height="16" viewBox="0 0 16 16" fill="none" xmlns="http://www.w3.org/2000/svg">
<path d="M14.0561 4.32044L11.0155 6.19387L8.09985 2.30481C8.08812 2.28916 8.07291 2.27645 8.05541 2.2677C8.03792 2.25895 8.01863 2.25439 7.99907 2.25439C7.97951 2.25439 7.96022 2.25895 7.94273 2.2677C7.92523 2.27645 7.91002 2.28916 7.89829 2.30481L4.98423 6.19387L1.94204 4.32044C1.85298 4.26575 1.73735 4.33919 1.75141 4.44387L2.94516 13.5157C2.96235 13.6392 3.0686 13.7345 3.19516 13.7345H12.8061C12.9311 13.7345 13.0389 13.6407 13.0545 13.5157L14.2483 4.44387C14.2608 4.33919 14.1467 4.26575 14.0561 4.32044ZM12.0874 12.6657H3.91079L3.07016 6.26887L5.25454 7.61419L7.99985 3.95169L10.7452 7.61419L12.9295 6.26887L12.0874 12.6657ZM7.99985 7.95325C7.02954 7.95325 6.24048 8.74231 6.24048 9.71262C6.24048 10.6829 7.02954 11.472 7.99985 11.472C8.97016 11.472 9.75923 10.6829 9.75923 9.71262C9.75923 8.74231 8.97016 7.95325 7.99985 7.95325ZM7.99985 10.4673C7.58423 10.4673 7.24673 10.1298 7.24673 9.71262C7.24673 9.297 7.58423 8.95794 7.99985 8.95794C8.41548 8.95794 8.75298 9.29544 8.75298 9.71262C8.75298 10.1282 8.41548 10.4673 7.99985 10.4673Z" fill="currentColor"/>
</svg>
