<svg width="30" height="30" viewBox="0 0 30 30" fill="none" xmlns="http://www.w3.org/2000/svg">
<path d="M20.2962 12.0908L20.3021 12.085L19.2884 10.7871C19.2696 10.7628 19.2462 10.7425 19.2195 10.7273C19.1928 10.7121 19.1634 10.7023 19.1329 10.6985C19.1024 10.6947 19.0715 10.6969 19.0418 10.7051C19.0122 10.7133 18.9845 10.7272 18.9603 10.7461L17.4837 11.8975L15.4183 9.25781C15.3995 9.23354 15.3761 9.21322 15.3494 9.19801C15.3227 9.18281 15.2932 9.17302 15.2628 9.16921C15.2323 9.1654 15.2013 9.16764 15.1717 9.17581C15.1421 9.18398 15.1144 9.1979 15.0902 9.2168L13.9798 10.0869C13.9556 10.1057 13.9352 10.1292 13.92 10.1559C13.9048 10.1826 13.895 10.212 13.8912 10.2425C13.8874 10.2729 13.8897 10.3039 13.8978 10.3335C13.906 10.3631 13.9199 10.3908 13.9388 10.415L16.0042 13.0576L15.9984 13.0605L17.0121 14.3584C17.0912 14.4609 17.2376 14.4785 17.3402 14.3994L18.8167 13.248L20.6947 15.6504C20.7738 15.7529 20.9203 15.7705 21.0228 15.6914L22.1332 14.8242C22.2357 14.7451 22.2533 14.5986 22.1742 14.4961L20.2962 12.0908ZM17.8119 3.28125C12.8929 3.28125 8.90561 7.26856 8.90561 12.1875C8.90561 14.2471 9.60581 16.1426 10.7777 17.6514L3.34799 25.0811C3.30438 25.1251 3.27991 25.1846 3.27991 25.2466C3.27991 25.3086 3.30438 25.3681 3.34799 25.4121L4.58725 26.6514C4.67807 26.7422 4.82749 26.7422 4.91831 26.6514L12.348 19.2217C13.8568 20.3936 15.7523 21.0938 17.8119 21.0938C22.7308 21.0938 26.7181 17.1064 26.7181 12.1875C26.7181 7.26856 22.7308 3.28125 17.8119 3.28125ZM22.5345 16.9102C21.2748 18.1729 19.596 18.8672 17.8119 18.8672C16.0277 18.8672 14.349 18.1729 13.0892 16.9102C11.8265 15.6504 11.1322 13.9717 11.1322 12.1875C11.1322 10.4033 11.8265 8.72461 13.0892 7.46484C14.349 6.20215 16.0277 5.50781 17.8119 5.50781C19.596 5.50781 21.2748 6.20215 22.5345 7.46484C23.7972 8.72461 24.4915 10.4033 24.4915 12.1875C24.4915 13.9717 23.7972 15.6504 22.5345 16.9102Z" fill="#2F54EB"/>
</svg>
